<?xml version="1.0" encoding="UTF-8" standalone="no"?>
<!-- Created with Inkscape (http://www.inkscape.org/) -->

<svg
   xmlns:dc="http://purl.org/dc/elements/1.1/"
   xmlns:cc="http://creativecommons.org/ns#"
   xmlns:rdf="http://www.w3.org/1999/02/22-rdf-syntax-ns#"
   xmlns:svg="http://www.w3.org/2000/svg"
   xmlns="http://www.w3.org/2000/svg"
   xmlns:sodipodi="http://sodipodi.sourceforge.net/DTD/sodipodi-0.dtd"
   xmlns:inkscape="http://www.inkscape.org/namespaces/inkscape"
   width="512"
   height="512"
   viewBox="0 0 135.46667 135.46667"
   version="1.1"
   id="svg8"
   inkscape:version="0.92.1 r"
   sodipodi:docname="drawing-1.svg"
   inkscape:export-filename="/home/chris/Projects/data_trove/drawing-1.png"
   inkscape:export-xdpi="96"
   inkscape:export-ydpi="96">
  <defs
     id="defs2" />
  <sodipodi:namedview
     id="base"
     pagecolor="#ffffff"
     bordercolor="#666666"
     borderopacity="1.0"
     inkscape:pageopacity="0"
     inkscape:pageshadow="2"
     inkscape:zoom="1.979899"
     inkscape:cx="152.92756"
     inkscape:cy="275.09244"
     inkscape:document-units="mm"
     inkscape:current-layer="layer1"
     showgrid="false"
     units="px"
     scale-x="1e-05"
     inkscape:snap-tangential="true"
     inkscape:snap-perpendicular="true"
     inkscape:snap-intersection-paths="true"
     inkscape:snap-midpoints="true"
     inkscape:snap-object-midpoints="true"
     inkscape:snap-center="true"
     inkscape:snap-bbox="true"
     inkscape:snap-global="true"
     inkscape:window-width="2560"
     inkscape:window-height="1361"
     inkscape:window-x="0"
     inkscape:window-y="41"
     inkscape:window-maximized="1" />
  <metadata
     id="metadata5">
    <rdf:RDF>
      <cc:Work
         rdf:about="">
        <dc:format>image/svg+xml</dc:format>
        <dc:type
           rdf:resource="http://purl.org/dc/dcmitype/StillImage" />
        <dc:title></dc:title>
      </cc:Work>
    </rdf:RDF>
  </metadata>
  <g
     inkscape:label="Layer 1"
     inkscape:groupmode="layer"
     id="layer1"
     transform="translate(0,-161.53332)">
    <path
       style="opacity:1;fill:#00ff00;stroke:#000000;stroke-width:1.46903217;stroke-miterlimit:4;stroke-dasharray:none;stroke-opacity:1"
       d="m 75.222585,179.1825 a 22.560147,22.560147 0 0 0 -15.549648,6.60419 l -0.0022,-0.001 -6.2606,6.2606 -6.074823,-6.07482 h -7.35e-4 l -0.06743,-0.0667 a 22.560147,22.560147 0 0 0 -31.887611,0.11691 v 7.3e-4 a 22.560147,22.560147 0 0 0 0.05236,31.85319 l -0.0022,0.001 28.33697,28.33697 0.01006,-0.009 9.692168,9.69217 16.033825,-16.03383 -0.04878,-0.0488 22.122989,-22.12228 -7.3e-4,-7.3e-4 0.0667,-0.0681 A 22.560147,22.560147 0 0 0 91.526,185.73503 v -7.3e-4 a 22.560147,22.560147 0 0 0 -16.303415,-6.55181 z"
       id="path4485"
       inkscape:connector-curvature="0" />
    <path
       style="opacity:1;fill:#00ff00;stroke:#000000;stroke-width:1.46903217;stroke-miterlimit:4;stroke-dasharray:none;stroke-opacity:1"
       d="m 105.64145,200.36144 a 22.560147,22.560147 0 0 0 -15.549712,6.60419 l -0.0021,-0.001 -6.2606,6.2606 -6.074823,-6.07482 h -7.93e-4 l -0.06743,-0.0667 a 22.560147,22.560147 0 0 0 -31.887637,0.11693 v 7.4e-4 a 22.560147,22.560147 0 0 0 0.05236,31.85318 l -0.0022,0.001 28.336969,28.33697 0.01005,-0.009 9.692169,9.69217 16.033882,-16.03383 -0.0488,-0.0488 22.122995,-22.12228 -7.9e-4,-7.9e-4 0.0667,-0.0681 a 22.560147,22.560147 0 0 0 -0.11684,-31.88798 v -7.4e-4 a 22.560147,22.560147 0 0 0 -16.30341,-6.55179 z"
       id="path4485-6"
       inkscape:connector-curvature="0" />
  </g>
</svg>
