<?xml version="1.0" encoding="UTF-8" standalone="no"?>
<!-- Created with Inkscape (http://www.inkscape.org/) -->

<svg
   xmlns:dc="http://purl.org/dc/elements/1.1/"
   xmlns:cc="http://creativecommons.org/ns#"
   xmlns:rdf="http://www.w3.org/1999/02/22-rdf-syntax-ns#"
   xmlns:svg="http://www.w3.org/2000/svg"
   xmlns="http://www.w3.org/2000/svg"
   xmlns:sodipodi="http://sodipodi.sourceforge.net/DTD/sodipodi-0.dtd"
   xmlns:inkscape="http://www.inkscape.org/namespaces/inkscape"
   width="512"
   height="512"
   viewBox="0 0 135.46666 135.46667"
   version="1.1"
   id="svg3688"
   inkscape:version="0.92.1 r"
   sodipodi:docname="drawing.svg">
  <defs
     id="defs3682" />
  <sodipodi:namedview
     id="base"
     pagecolor="#ffffff"
     bordercolor="#666666"
     borderopacity="1.0"
     inkscape:pageopacity="0.00392157"
     inkscape:pageshadow="2"
     inkscape:zoom="1.979899"
     inkscape:cx="334.47684"
     inkscape:cy="311.38905"
     inkscape:document-units="mm"
     inkscape:current-layer="layer1"
     showgrid="false"
     units="px"
     inkscape:window-width="2560"
     inkscape:window-height="1361"
     inkscape:window-x="0"
     inkscape:window-y="41"
     inkscape:window-maximized="1"
     inkscape:pagecheckerboard="true" />
  <metadata
     id="metadata3685">
    <rdf:RDF>
      <cc:Work
         rdf:about="">
        <dc:format>image/svg+xml</dc:format>
        <dc:type
           rdf:resource="http://purl.org/dc/dcmitype/StillImage" />
        <dc:title></dc:title>
      </cc:Work>
    </rdf:RDF>
  </metadata>
  <g
     inkscape:label="Layer 1"
     inkscape:groupmode="layer"
     id="layer1"
     transform="translate(0,-161.53332)">
    <path
       style="opacity:1;fill:#00ff00;stroke:#000000;stroke-width:4.16328144;stroke-miterlimit:4;stroke-dasharray:none;stroke-opacity:1"
       d="m 75.466102,170.6506 a 22.475819,24.684422 15.031232 0 0 -16.484381,7.59985 22.475819,24.684422 15.031232 0 0 -0.759944,0.88159 l -0.0103,-0.0107 -7.91235,8.58045 -7.67862,-8.327 -0.03704,0.0402 a 24.652579,22.446825 74.968755 0 0 -0.665429,-0.79364 24.652579,22.446825 74.968755 0 0 -31.9552894,-0.81442 24.652579,22.446825 74.968755 0 0 0.7510054,34.65291 24.652579,22.446825 74.968755 0 0 0.722264,0.7327 l -0.02746,0.0297 13.521878,14.66367 -0.03321,0.0367 25.366773,27.75874 24.985526,-27.34114 14.173907,-15.37143 -0.02107,-0.0229 a 22.475819,24.684422 15.031232 0 0 0.823805,-0.81233 22.475819,24.684422 15.031232 0 0 0.752291,-34.69793 22.475819,24.684422 15.031232 0 0 -15.512432,-6.78473 z"
       id="rect3690"
       inkscape:connector-curvature="0" />
    <path
       style="fill:#00ff00;stroke:#000000;stroke-width:4.16328144;stroke-miterlimit:4;stroke-dasharray:none;stroke-opacity:1"
       d="m 110.86999,197.11067 a 22.475819,24.684422 15.031232 0 0 -16.484386,7.59983 22.475819,24.684422 15.031232 0 0 -0.759943,0.88159 l -0.0099,-0.0107 -7.912349,8.58045 -7.678625,-8.32699 -0.03704,0.0402 a 24.652579,22.446825 74.968755 0 0 -0.665431,-0.79364 24.652579,22.446825 74.968755 0 0 -31.95529,-0.81441 24.652579,22.446825 74.968755 0 0 0.751006,34.6529 24.652579,22.446825 74.968755 0 0 0.722264,0.73271 l -0.02747,0.0297 13.521879,14.66367 -0.03321,0.0368 25.366778,27.75874 24.985527,-27.34115 14.17389,-15.37143 -0.0211,-0.0229 a 22.475819,24.684422 15.031232 0 0 0.8238,-0.81233 22.475819,24.684422 15.031232 0 0 0.75229,-34.69793 22.475819,24.684422 15.031232 0 0 -15.51241,-6.78474 z"
       id="rect3690-7"
       inkscape:connector-curvature="0" />
  </g>
</svg>
